<svg xmlns="http://www.w3.org/2000/svg" viewBox="0 0 1920 1080">
  <defs>
    <linearGradient id="sky" x1="0%" y1="0%" x2="0%" y2="100%">
      <stop offset="0%" style="stop-color:#4a7ab5"/>
      <stop offset="100%" style="stop-color:#87a8c7"/>
    </linearGradient>
  </defs>
  <rect fill="url(#sky)" width="1920" height="1080"/>
  <!-- Mountains -->
  <polygon fill="#5a6a7a" points="0,800 400,300 800,800"/>
  <polygon fill="#6a7a8a" points="600,800 1000,400 1400,800"/>
  <polygon fill="#5a7a8a" points="1200,800 1600,350 1920,700 1920,800"/>
  <!-- Houses -->
  <rect fill="#8b4513" x="200" y="700" width="150" height="200"/>
  <polygon fill="#654321" points="200,700 275,600 350,700"/>
  <rect fill="#8b5513" x="500" y="720" width="120" height="180"/>
  <polygon fill="#654321" points="500,720 560,640 620,720"/>
  <rect fill="#7b4513" x="1400" y="680" width="180" height="220"/>
  <polygon fill="#654321" points="1400,680 1490,580 1580,680"/>
  <!-- Ground -->
  <rect fill="#5a8a3a" y="900" width="1920" height="180"/>
  <ellipse fill="#4a7a2a" cx="960" cy="950" rx="400" ry="60"/>
</svg>
